<?xml version="1.0" encoding="UTF-8" standalone="no"?>
<!DOCTYPE svg PUBLIC "-//W3C//DTD SVG 1.1//EN" "http://www.w3.org/Graphics/SVG/1.1/DTD/svg11.dtd">
<!-- Created with Vectornator (http://vectornator.io/) -->
<svg height="100%" stroke-miterlimit="10" style="fill-rule:nonzero;clip-rule:evenodd;stroke-linecap:round;stroke-linejoin:round;" version="1.1" viewBox="0 0 128 128" width="100%" xml:space="preserve" xmlns="http://www.w3.org/2000/svg" xmlns:vectornator="http://vectornator.io" xmlns:xlink="http://www.w3.org/1999/xlink">
<defs/>
<clipPath id="ArtboardFrame">
<rect height="128" width="128" x="0" y="0"/>
</clipPath>
<g clip-path="url(#ArtboardFrame)" id="Layer-1" vectornator:layerName="Layer 1">
<g opacity="1" vectornator:layerName="Curve 1">
<path d="M7.36445 15.1821C7.36445 38.7389 5.20396 61.8215 4.52302 85.3189C4.45111 87.8002 6.91223 107.907 7.64859 108.408C12.4691 111.687 21.2984 109.126 26.4731 108.724C41.8544 107.53 57.3655 106.668 72.7884 106.668C84.6142 106.668 96.4179 108.033 108.235 108.487C111.767 108.623 118.477 110.261 121.093 106.985C124.436 102.799 121.954 92.1845 121.803 87.1376C121.283 69.7663 122.158 52.5806 122.158 35.2664C122.158 31.0063 123.587 18.2673 119.601 16.131C111.418 11.7451 91.7912 13.1798 82.6624 12.9681C57.4032 12.3823 32.1991 12.8099 7.00927 12.8099" fill="#160b26" fill-rule="nonzero" stroke="none"/>
<path d="M8.3125 11.9062C8.01075 11.9142 7.69049 12.0101 7.375 12.0625C7.36477 12.0642 7.35399 12.0608 7.34375 12.0625C7.33651 12.0593 7.31987 12.0652 7.3125 12.0625C7.02713 12.1125 6.75892 12.1307 6.46875 12.2188C3.93901 12.9864 2.28228 14.9182 2.78125 16.5625C5.06147 14.3012 5.63817 13.7737 5.0625 14.3125C3.99861 15.3083 3.36695 16.6969 2.78125 18.0312C2.58575 18.4766 2.78268 19.0136 2.78125 19.5C2.77698 20.9567 2.76956 22.4184 2.75 23.875C2.68485 28.7254 2.51908 33.5587 2.34375 38.4062C1.94036 49.5591 1.31666 60.7264 0.8125 71.875C0.657865 75.2945 0.542837 78.7037 0.4375 82.125C0.38962 83.6801 0.293407 85.2568 0.3125 86.8125C0.326957 87.9905 0.46984 89.1738 0.59375 90.3438C1.12839 95.3917 1.80401 100.433 2.65625 105.438C2.86383 106.656 3.08025 107.861 3.375 109.062C3.49339 109.545 3.61454 110.23 3.9375 110.625C4.43176 111.23 4.6599 111.357 5.34375 111.719C7.95158 113.099 11.0094 113.335 13.9062 113.219C18.42 113.037 22.8443 111.958 27.3438 111.594C41.4442 110.453 55.6024 109.49 69.75 109.25C82.2429 109.038 94.6804 110.118 107.156 110.594C112.225 110.787 118.269 112.297 122.312 108.281C125.769 104.848 125.287 99.1049 124.844 94.6875C124.589 92.1464 124.153 89.6108 123.969 87.0625C123.798 84.7119 123.775 82.3555 123.719 80C123.598 74.9847 123.552 69.9542 123.562 64.9375C123.578 57.7682 123.687 50.6068 123.688 43.4375C123.688 39.0792 123.633 34.7319 123.75 30.375C123.838 27.1177 123.902 23.7854 123.344 20.5625C123.075 19.0091 122.673 17.3238 121.625 16.0938C120.89 15.2316 119.785 14.7945 118.75 14.4062C117.157 13.8088 115.515 13.4272 113.844 13.125C107.053 11.8972 100.029 12.0043 93.1562 12.125C83.4625 12.2953 73.7565 12.0036 64.0625 11.9375C53.0265 11.8623 42.0048 11.9146 30.9688 11.9688C25.7202 11.9945 20.4674 12.0197 15.2188 12.0312C13.6442 12.0347 12.0745 12.0278 10.5 12.0312C10.1398 12.032 9.76443 12.0231 9.40625 12.0312C9.05231 11.9708 8.70463 11.8959 8.3125 11.9062ZM44.4688 13.4375C52.8732 13.4136 61.2835 13.4038 69.6875 13.5C75.1916 13.563 80.7144 13.7884 86.2188 13.75C92.8919 13.7034 99.5637 13.5998 106.219 14.1875C109.676 14.4928 113.246 14.9337 116.531 16.125C117.351 16.4222 118.363 16.7279 119.031 17.3125C120.722 18.7914 120.874 22.3197 120.969 24.375C121.144 28.1652 120.733 31.9342 120.656 35.7188C120.517 42.5811 120.369 49.4519 120.156 56.3125C119.83 66.8153 119.475 77.3035 119.688 87.8125C119.776 92.174 120.666 96.4989 120.531 100.875C120.476 102.662 120.383 104.933 119.219 106.406C119.09 106.569 118.814 106.675 118.625 106.719C118.359 106.78 118.114 106.835 117.844 106.875C116.482 107.077 115.048 106.946 113.688 106.812C112.39 106.685 111.082 106.504 109.781 106.406C105.719 106.099 101.656 105.881 97.5938 105.562C90.7025 105.022 83.8183 104.394 76.9062 104.188C71.3999 104.023 65.8823 104.071 60.375 104.156C51.3388 104.296 42.2961 104.67 33.2812 105.312C30.844 105.486 28.3975 105.572 25.9688 105.844C23.289 106.144 20.6294 106.611 17.9375 106.812C16.2009 106.942 14.3754 106.951 12.6875 106.469C12.2076 106.332 11.7185 106.119 11.2812 105.875C11.2655 105.804 11.2334 105.758 11.2188 105.688C11.1498 105.355 11.0881 105.022 11.0312 104.688C10.8953 103.887 10.7732 103.085 10.6562 102.281C10.3555 100.214 10.123 98.1364 9.875 96.0625C9.41221 92.1919 8.81458 88.2495 8.71875 84.3438C8.69319 83.3019 8.82733 82.2278 8.875 81.1875C8.96467 79.2308 9.0397 77.2694 9.125 75.3125C9.78347 60.2062 10.9812 45.1422 11.5625 30.0312C11.7138 26.0996 11.8469 22.1529 11.9062 18.2188C11.9137 17.7251 11.9319 17.2436 11.9375 16.75C11.9431 16.2556 12.3604 15.5061 11.9375 15.25C10.362 14.2959 11.9261 15.2543 11.9375 13.7812C11.9108 13.6933 11.8188 13.645 11.7812 13.5625C12.1762 13.5616 12.5738 13.5634 12.9688 13.5625C15.594 13.5567 18.2186 13.5441 20.8438 13.5312C28.7195 13.4926 36.5929 13.4599 44.4688 13.4375Z" fill="#8060d2" stroke="none"/>
</g>
<g opacity="0" vectornator:layerName="Curve 2">
<path d="M24.4688 37.2812C23.6415 37.4863 23.0855 38.0873 23.2188 38.625C22.8062 43.6707 22.4902 48.7162 22.4688 53.7812C22.4259 63.884 23.0367 74.0044 23.9375 84.0625C23.976 84.1701 24.147 84.1842 24.3125 84.125C24.478 84.0658 24.601 83.9513 24.5625 83.8438C24.279 80.678 23.9625 77.4914 23.875 74.3125C23.5397 62.1349 24.9336 49.9628 26.2188 37.875C26.0855 37.3373 25.296 37.0762 24.4688 37.2812Z" fill="#ffffff" stroke="none"/>
</g>
<g opacity="0" vectornator:layerName="Curve 3">
<path d="M33.6562 35.2188C31.8644 35.1805 30.0586 35.4248 28.3438 35.9062C26.1045 36.5349 23.8332 37.7633 23.1875 40.1562C23.2619 40.6836 23.9699 41.0207 24.7812 40.9062C25.5926 40.7918 26.1994 40.2774 26.125 39.75C26.3151 38.9166 27.0487 38.6055 27.8125 38.3438C28.9731 37.9461 30.1867 37.779 31.4062 37.6875C34.9959 37.4181 40.5712 38.6148 41.0625 42.9375C41.1471 43.6818 41.0683 44.428 40.9062 45.1562C40.2862 47.9422 38.5476 50.4296 36.8125 52.625C34.2424 55.8768 31.1967 58.5218 28 61.125C27.5909 61.4582 27.1601 61.793 26.75 62.125C26.3614 62.4396 25.9826 62.7482 25.5938 63.0625C25.2678 63.326 24.8582 63.6406 24.5312 63.9062C24.2719 64.1169 23.9483 64.4098 23.6875 64.625C23.488 64.7896 22.2099 65.6104 22.4375 66.1875C22.4501 66.2195 22.6435 66.4573 22.6875 66.4062C22.6442 66.4565 22.8089 66.4322 22.875 66.4375C23.0219 66.4492 23.1777 66.4056 23.3125 66.3438C24.5452 65.7784 25.6246 64.858 26.7812 64.1562C27.56 63.6838 28.3474 63.2315 29.1562 62.8125C32.4574 61.1026 38.3698 58.6989 41.1562 62.5625C42.841 64.8985 42.6718 68.2073 42.0938 70.875C40.6979 77.3164 35.0822 85.8091 27.4688 84.0625C27.3816 84.0011 27.2195 84.0534 27.125 84.1875C27.0305 84.3216 27.0378 84.5011 27.125 84.5625C34.9042 86.3439 40.5295 78.3315 42.4375 71.8125C42.7273 70.8225 42.9593 69.8047 43.0938 68.7812C43.2556 67.5495 43.2795 66.2943 43.0938 65.0625C42.9711 64.2489 42.7437 63.4253 42.375 62.6875C40.6099 59.1559 36.5753 59.2145 33.25 60.1562C31.7226 60.5888 30.3009 61.3295 28.875 62.0312C29.5187 61.5338 30.173 61.034 30.8125 60.5312C35.1625 57.1115 39.3441 53.1666 42 48.25C43.1088 46.1973 44.0506 43.8128 43.6562 41.4375C43.2309 38.8755 41.1695 37.1856 38.875 36.25C37.2145 35.5729 35.4481 35.257 33.6562 35.2188Z" fill="#ffffff" stroke="none"/>
</g>
<g opacity="0" vectornator:layerName="Curve 4">
<path d="M52.5 55.4375C51.801 55.4334 51.0926 55.5673 50.4375 55.8125C48.5562 56.5166 47.1235 58.03 46.1562 59.75C43.7713 63.991 43.4448 69.2982 44 74.0312C44.2482 76.1472 44.7365 78.2114 45.625 80.1562C47.0898 83.3628 49.7948 85.9364 53.5312 85.7188C61.7689 85.2389 64.6012 75.4495 64 68.5938C63.8762 67.1821 63.6095 65.7912 63.1875 64.4375C62.3529 61.7603 60.596 58.9955 57.625 58.4688C56.4487 58.2602 55.2551 58.4222 54.125 58.7812C53.672 58.9252 53.2123 59.0812 52.7812 59.2812C52.6269 59.3529 52.3063 59.6972 52.3438 59.5312C52.5622 58.5618 52.397 58.9373 52.1562 59.3438C52.2483 59.5412 52.3179 59.778 52.5 59.9062C52.6286 59.9968 52.7636 59.785 52.9062 59.7188C53.1617 59.6002 53.454 59.4728 53.7188 59.375C54.8557 58.9549 56.1074 58.7549 57.3125 58.9688C59.8679 59.4223 61.4905 61.6849 62.3438 63.9688C64.1508 68.8055 63.4044 75.4116 60.8125 79.8438C59.4918 82.1022 57.4368 83.9899 54.75 84.3125C51.1496 84.7448 48.8447 82.178 47.6562 79.0625C45.7979 74.1908 45.9182 68.3429 47.3438 63.375C47.834 61.6666 48.549 59.6708 49.9375 58.4688C50.3437 58.1171 50.8058 57.9251 51.3438 57.9375C51.3588 57.9378 51.7456 57.9494 51.75 57.9688C51.9129 58.6869 51.74 57.9788 52 58.0312C52.4391 58.3228 53.1765 57.9881 53.625 57.3125C54.0735 56.6369 54.0641 55.854 53.625 55.5625C52.7471 57.658 53.6265 57.4582 52.75 57.6562C52.0272 57.8196 53.236 56.2396 53.2812 55.5C53.2893 55.3678 53.0071 55.4789 52.875 55.4688C52.743 55.4586 52.6324 55.4383 52.5 55.4375ZM52.1562 59.3438C52.1173 59.2601 52.1224 59.0698 52.0312 59.0938C51.7932 59.1564 51.8834 59.267 51.9688 59.625C52.0512 59.5454 52.0915 59.453 52.1562 59.3438ZM51.9688 59.625C51.9306 59.6618 51.9159 59.7281 51.875 59.75C51.8047 59.7809 51.7963 59.8918 51.8438 60C51.8912 60.1082 51.9609 60.1871 52.0312 60.1562C52.0253 59.844 52.004 59.7729 51.9688 59.625Z" fill="#ffffff" stroke="none"/>
</g>
<g opacity="0" vectornator:layerName="Curve 5">
<path d="M79.3125 57.4688C76.576 57.1052 74.5491 60.8481 73.5312 62.9062C73.355 63.2626 73.1652 63.6072 73 63.9688C71.3502 67.5785 70.2098 71.4052 69.125 75.2188C69.2361 73.9013 69.3592 72.5987 69.4688 71.2812C69.743 67.9824 69.9763 64.6763 70.2188 61.375C70.0747 60.8365 69.2973 60.5909 68.4688 60.8125C67.6402 61.0341 67.0747 61.649 67.2188 62.1875C67.0488 65.4636 66.8657 68.7215 66.75 72C66.6833 73.8887 66.6529 75.7986 66.5938 77.6875C66.5472 79.1751 66.5479 80.6703 66.6562 82.1562C66.6788 82.4657 66.7137 82.7784 66.8438 83.0625C66.8721 83.1245 67.0874 83.3013 67.1875 83.3125C67.1936 83.3132 67.2138 83.3134 67.2188 83.3125C67.2099 83.3247 67.2277 83.3434 67.25 83.3438C67.2648 83.344 67.2713 83.3424 67.2812 83.3438C67.3874 83.3581 67.4533 83.3556 67.5625 83.3438C67.7337 83.3251 67.9081 83.2628 68.0625 83.1875C69.2309 82.6179 69.3627 80.3818 69.5938 79.2812C70.3435 75.7102 71.0827 72.1649 72.0938 68.6562C72.3255 67.852 72.5786 67.0128 72.8438 66.2188C73.0858 65.494 73.3726 64.6795 73.6562 63.9688C73.966 63.1926 74.2082 62.6749 74.5938 61.9375C75.5778 60.0552 77.5118 56.9073 80.0625 58.3438C80.5925 58.6423 81.016 59.0682 81.4375 59.5C81.5078 59.5933 81.7003 59.5769 81.8438 59.4688C81.9872 59.3606 82.039 59.187 81.9688 59.0938C81.5262 58.6407 81.0878 58.219 80.5312 57.9062C80.1121 57.6707 79.7034 57.5207 79.3125 57.4688Z" fill="#ffffff" stroke="none"/>
</g>
<g opacity="0" vectornator:layerName="Curve 6">
<path d="M96.3125 56.0625C91.5055 56.4742 88.516 62.0439 87.3438 66.3125C87.136 67.0691 86.9231 68.0415 86.7812 68.8125C86.5486 70.0776 86.3791 71.3404 86.3125 72.625C86.2274 74.267 86.2956 75.9338 86.5312 77.5625C87.0228 80.9592 88.5387 85.171 92.4375 85.7188C93.1167 85.8142 93.792 85.7961 94.4688 85.6875C95.5094 85.5206 96.5209 85.1731 97.4688 84.7188C99.2887 83.8464 100.911 82.6444 102.469 81.375C102.52 81.3156 102.466 81.204 102.375 81.125C102.284 81.0461 102.176 81.0344 102.125 81.0938C100.628 82.3134 99.0922 83.4741 97.3438 84.3125C96.4729 84.7301 95.55 85.0653 94.5938 85.2188C90.2222 85.9202 88.3648 81.9287 87.8438 78.25C87.6212 76.6785 87.6094 75.082 87.7188 73.5C87.8059 72.24 87.9685 70.9877 88.2188 69.75C88.4672 68.5215 88.8072 67.3091 89.2188 66.125C90.4721 62.5187 93.3286 56.5408 98.0938 58.9688C98.7491 59.3027 99.3454 59.7134 99.9062 60.1875C100.848 60.984 101.635 61.9167 102.406 62.875C102.742 63.3557 103.604 63.3284 104.344 62.8125C105.083 62.2966 105.429 61.4807 105.094 61C103.951 59.6444 102.724 58.3659 101.219 57.4062C100.379 56.8711 99.4431 56.4366 98.4688 56.2188C97.7082 56.0487 96.9992 56.0037 96.3125 56.0625Z" fill="#ffffff" stroke="none"/>
</g>
<g opacity="0" vectornator:layerName="Curve 7">
<path d="M103.375 39.1875C102.548 39.3915 101.992 39.9936 102.125 40.5312C101.735 45.2426 101.396 49.9566 101.406 54.6875C101.427 64.0876 102.331 73.5316 104.5 82.6875C104.546 82.7938 104.711 82.8215 104.875 82.75C105.039 82.6785 105.14 82.5126 105.094 82.4062C104.413 79.5303 103.786 76.6301 103.469 73.6875C102.254 62.4116 103.902 51.0131 105.125 39.8125C104.992 39.2749 104.202 38.9835 103.375 39.1875Z" fill="#ffffff" stroke="none"/>
</g>
<g opacity="1" vectornator:layerName="Curve 8">
<path d="M32.125 27.8438C32.6282 31.0156 32.9128 34.2059 33.1562 37.4062C33.2718 38.9247 33.46 40.4757 33.4688 42C33.4776 43.5561 33.3125 45.1328 33.25 46.6875C33.1268 49.7514 33.0144 52.8095 32.9375 55.875C32.7686 62.6082 32.6987 69.3595 32.8438 76.0938C32.9609 81.5315 33.1935 86.9754 33.875 92.375C33.5128 92.8607 35.6449 95.0591 38.625 97.2812C41.6051 99.5034 44.3253 100.892 44.6875 100.406C44.0106 95.0376 43.7718 89.6253 43.6562 84.2188C43.5125 77.4966 43.5803 70.7835 43.75 64.0625C43.8273 61.0009 43.9389 57.9351 44.0625 54.875C44.1257 53.3096 44.2899 51.7232 44.2812 50.1562C44.2714 48.3706 44.0487 46.5593 43.9062 44.7812C43.6672 41.7983 43.4061 38.801 42.9375 35.8438C43.2985 35.3578 41.1692 33.1839 38.1875 30.9688C35.2058 28.7536 32.486 27.3578 32.125 27.8438Z" fill="#ffffff" stroke="none"/>
</g>
<g opacity="1" vectornator:layerName="Curve 9">
<path d="M60.1875 22.0938C50.405 22.8322 41.3052 28.0853 32.625 32.8438C32.24 33.3208 34.2915 35.6065 37.2188 37.9688C40.146 40.331 42.8337 41.8833 43.2188 41.4062C51.0767 37.098 59.1931 32.2116 68.2188 30.9375C71.0255 30.5413 73.8803 30.6306 76.6875 31.0312C76.6436 35.3513 73.2602 39.7907 70.375 42.5C69.5458 43.2787 68.9898 43.739 68.0938 44.4375C67.0657 45.2389 65.9407 45.9132 64.8125 46.5625C61.4609 48.4915 57.9246 50.0525 54.3438 51.5C50.1715 53.1866 45.9294 54.7146 41.6562 56.125C39.6196 56.7972 37.5534 57.4435 35.5 58.0625C35.3749 58.1002 35.2501 58.1501 35.125 58.1875C35.0162 58.2201 34.9214 58.2489 34.8125 58.2812C34.7222 58.3081 34.6216 58.3171 34.5312 58.3438C34.4535 58.3667 33.9643 58.4393 33.9062 58.625C33.8319 58.8628 34.1322 59.4554 34.1875 59.625C34.2069 59.6846 34.2328 59.7473 34.25 59.8125C34.0916 59.8785 33.8748 59.8683 33.875 60.0312C33.875 60.0442 33.8646 60.0547 33.875 60.0625C33.8698 60.0586 33.9346 60.3217 33.9688 60.375C34.2315 60.7847 34.5209 61.1982 34.8438 61.5625C35.3648 62.1503 35.9252 62.6834 36.5 63.2188C37.0152 63.6986 37.5519 64.1442 38.0938 64.5938C38.9994 65.3451 40.0371 66.2507 41.0938 66.8125C42.1745 67.3871 43.2628 67.9569 44.3438 68.5312C44.4918 68.6099 44.7574 68.6085 44.9062 68.5312C44.9998 68.4827 44.9729 68.3454 45 68.25C46.4314 67.8202 47.9148 67.501 49.375 67.1875C51.7475 66.6782 54.1212 66.1981 56.5 65.7188C63.117 64.3854 69.7037 63.1481 76.4375 62.5312C81.7662 62.0431 87.1685 61.8116 92.5 62.375C93.1302 62.4416 93.7469 62.6175 94.375 62.7188C94.2646 64.3478 93.6354 65.8928 92.75 67.25C89.856 71.6859 84.8675 74.6932 80.2812 77.0938C71.3342 81.7769 61.4531 84.8477 51.5312 86.625C48.0122 87.2554 44.4559 87.7387 40.9062 88.1562C38.6282 88.4242 36.3111 88.5965 34.0625 89.0625C33.6753 89.5317 35.715 91.8427 38.5938 94.2188C41.4725 96.5947 44.1128 98.1567 44.5 97.6875C46.9968 97.1697 49.565 96.9583 52.0938 96.6562C55.3821 96.2635 58.6458 95.8339 61.9062 95.25C72.55 93.3439 83.5153 89.8668 92.9375 84.5C93.914 83.9438 94.8731 83.3668 95.8125 82.75C100.124 79.9187 106.051 75.0792 105.125 69.2188C104.669 66.3332 102.332 64.0801 100.25 62.25C98.2998 60.5357 96.2156 58.9663 94.0312 57.5625C89.1636 54.4344 83.4205 53.6741 77.75 53.5312C81.4962 50.9498 84.7447 47.7832 86.625 43.5C88.2743 39.7429 88.0244 36.3726 85.25 33.2188C84.0416 31.8452 82.8734 30.7296 81.4375 29.5312C79.6927 28.075 78.089 26.9176 76.1875 25.7188C74.3297 24.5474 72.3053 23.6139 70.1875 23.0312C66.7657 22.0899 63.4483 21.8476 60.1875 22.0938Z" fill="#ffffff" stroke="none"/>
</g>
</g>
<g id="Layer-2" vectornator:layerName="Layer 2"/>
</svg>
